<svg width="10" height="10" viewBox="0 0 10 10" fill="none" xmlns="http://www.w3.org/2000/svg">
<path fill-rule="evenodd" clip-rule="evenodd" d="M5.3975 2.1875C5.3975 2.10462 5.36458 2.02513 5.30597 1.96653C5.24737 1.90792 5.16788 1.875 5.085 1.875H0.9375C0.68886 1.875 0.450403 1.97377 0.274587 2.14959C0.098772 2.3254 0 2.56386 0 2.8125L0 9.0625C0 9.31114 0.098772 9.5496 0.274587 9.72541C0.450403 9.90123 0.68886 10 0.9375 10H7.1875C7.43614 10 7.6746 9.90123 7.85041 9.72541C8.02623 9.5496 8.125 9.31114 8.125 9.0625V4.915C8.125 4.83212 8.09208 4.75263 8.03347 4.69403C7.97487 4.63542 7.89538 4.6025 7.8125 4.6025C7.72962 4.6025 7.65013 4.63542 7.59153 4.69403C7.53292 4.75263 7.5 4.83212 7.5 4.915V9.0625C7.5 9.14538 7.46708 9.22487 7.40847 9.28347C7.34987 9.34208 7.27038 9.375 7.1875 9.375H0.9375C0.85462 9.375 0.775134 9.34208 0.716529 9.28347C0.657924 9.22487 0.625 9.14538 0.625 9.0625V2.8125C0.625 2.72962 0.657924 2.65013 0.716529 2.59153C0.775134 2.53292 0.85462 2.5 0.9375 2.5H5.085C5.16788 2.5 5.24737 2.46708 5.30597 2.40847C5.36458 2.34987 5.3975 2.27038 5.3975 2.1875Z" fill="#76766F"/>
<path fill-rule="evenodd" clip-rule="evenodd" d="M10.0001 0.3125C10.0001 0.22962 9.96716 0.150134 9.90856 0.0915291C9.84995 0.032924 9.77046 0 9.68758 0L6.56259 0C6.47971 0 6.40022 0.032924 6.34162 0.0915291C6.28301 0.150134 6.25009 0.22962 6.25009 0.3125C6.25009 0.39538 6.28301 0.474866 6.34162 0.533471C6.40022 0.592076 6.47971 0.625 6.56259 0.625H8.93321L3.84134 5.71625C3.81228 5.7453 3.78924 5.7798 3.77351 5.81776C3.75779 5.85572 3.74969 5.89641 3.74969 5.9375C3.74969 5.97859 3.75779 6.01928 3.77351 6.05724C3.78924 6.0952 3.81228 6.1297 3.84134 6.15875C3.87039 6.18781 3.90489 6.21085 3.94285 6.22658C3.98081 6.2423 4.0215 6.25039 4.06259 6.25039C4.10368 6.25039 4.14437 6.2423 4.18233 6.22658C4.22029 6.21085 4.25478 6.18781 4.28384 6.15875L9.37509 1.06688V3.4375C9.37509 3.52038 9.40801 3.59987 9.46661 3.65847C9.52522 3.71708 9.6047 3.75 9.68758 3.75C9.77046 3.75 9.84995 3.71708 9.90856 3.65847C9.96716 3.59987 10.0001 3.52038 10.0001 3.4375V0.3125Z" fill="#76766F"/>
</svg>
